<svg t="1689750069303" class="icon" viewBox="0 0 1024 1024" version="1.1" xmlns="http://www.w3.org/2000/svg" p-id="1318"
     width="32" height="32">
    <path d="M341.333333 661.333333a149.162667 149.162667 0 0 1-147.797333-165.034666A149.162667 149.162667 0 0 1 341.333333 362.666667a149.162667 149.162667 0 0 1 147.797334 165.034666A149.162667 149.162667 0 0 1 341.333333 661.333333z"
          fill="#8a8a8a" p-id="1319"></path>
    <path d="M344.490667 800h335.018666a288 288 0 0 0 0-576H344.490667a288 288 0 0 0 0 576z m0-64a224 224 0 1 1 0-448h335.018666a224 224 0 1 1 0 448H344.490667z"
          fill="#8a8a8a" p-id="1320"></path>
</svg>